<svg width="458" height="400" viewBox="0 0 458 400" fill="none" xmlns="http://www.w3.org/2000/svg">
<g clip-path="url(#clip0_38_10)">
<path d="M345.347 23.1497C345.347 23.1497 276.966 -15.1049 198.487 13.942C120.008 42.9889 70.0068 118.656 27.8841 178.862C-14.2387 239.067 -7.79568 308.754 41.5295 348.409C90.8546 388.063 135.612 349.595 212.512 360.428C289.413 371.262 308.113 385.69 378.974 353.309C449.835 320.928 478.716 220.794 441.506 136.774C404.295 52.7543 345.347 23.1497 345.347 23.1497Z" fill="#C6FF00"/>
<path opacity="0.8" d="M345.347 23.1497C345.347 23.1497 276.966 -15.1049 198.487 13.942C120.008 42.9889 70.0068 118.656 27.8841 178.862C-14.2387 239.067 -7.79568 308.754 41.5295 348.409C90.8546 388.063 135.612 349.595 212.512 360.428C289.413 371.262 308.113 385.69 378.974 353.309C449.835 320.928 478.716 220.794 441.506 136.774C404.295 52.7543 345.347 23.1497 345.347 23.1497Z" fill="white"/>
<path d="M407.57 129.584C401.721 126.392 399.063 129.05 396.891 126.392C394.72 123.734 402.741 116.816 386.782 109.899C386.782 109.899 385.726 95.0076 363.917 94.4736C342.108 93.9397 347.958 109.377 342.108 113.091C336.258 116.805 334.656 110.967 328.807 114.693C322.957 118.418 325.615 125.858 320.833 126.926C316.051 127.994 309.668 122.18 303.818 125.858C297.968 129.536 297.956 132.776 295.298 132.776C292.64 132.776 287.325 130.652 284.133 132.776C280.941 134.9 277.215 137.522 277.215 137.522H411.83C411.83 137.522 413.432 132.776 407.57 129.584Z" fill="white"/>
<path opacity="0.5" d="M407.57 129.584C401.721 126.392 399.063 129.05 396.891 126.392C394.72 123.734 402.741 116.816 386.782 109.899C386.782 109.899 385.726 95.0076 363.917 94.4736C342.108 93.9397 347.958 109.377 342.108 113.091C336.258 116.805 334.656 110.967 328.807 114.693C322.957 118.418 325.615 125.858 320.833 126.926C316.051 127.994 309.668 122.18 303.818 125.858C297.968 129.536 297.956 132.776 295.298 132.776C292.64 132.776 287.325 130.652 284.133 132.776C280.941 134.9 277.215 137.522 277.215 137.522H411.83C411.83 137.522 413.432 132.776 407.57 129.584Z" fill="white"/>
<path d="M203.839 61.5467C200.374 59.6601 198.796 61.2382 197.538 59.6601C196.28 58.0819 201.003 53.9883 191.605 49.8828C191.605 49.8828 190.976 41.0548 178.055 40.7463C165.133 40.4378 168.562 49.5743 165.133 51.7813C161.704 53.9883 160.719 50.5236 157.242 52.7187C153.766 54.9138 155.356 59.3397 152.496 59.9804C149.637 60.6212 145.875 57.1327 142.411 59.3397C138.946 61.5467 138.946 63.4452 137.368 63.4452C135.79 63.4452 132.621 62.1756 130.747 63.4452C128.872 64.7148 126.641 66.281 126.641 66.281H206.401C206.401 66.281 207.315 63.4452 203.839 61.5467Z" fill="white"/>
<path opacity="0.5" d="M203.839 61.5467C200.374 59.6601 198.796 61.2382 197.538 59.6601C196.28 58.0819 201.003 53.9883 191.605 49.8828C191.605 49.8828 190.976 41.0548 178.055 40.7463C165.133 40.4378 168.562 49.5743 165.133 51.7813C161.704 53.9883 160.719 50.5236 157.242 52.7187C153.766 54.9138 155.356 59.3397 152.496 59.9804C149.637 60.6212 145.875 57.1327 142.411 59.3397C138.946 61.5467 138.946 63.4452 137.368 63.4452C135.79 63.4452 132.621 62.1756 130.747 63.4452C128.872 64.7148 126.641 66.281 126.641 66.281H206.401C206.401 66.281 207.315 63.4452 203.839 61.5467Z" fill="white"/>
<path d="M252.452 324.404C242.485 318.958 237.952 323.491 234.321 318.958C230.69 314.426 244.288 302.655 217.104 290.872C217.104 290.872 215.289 265.492 178.138 264.59C140.987 263.688 150.942 289.959 140.975 296.307C131.008 302.655 128.291 292.676 118.323 299.024C108.356 305.372 112.877 318.009 104.725 319.872C96.5739 321.735 85.7406 311.708 75.7261 318.056C65.7115 324.404 65.759 329.863 61.2263 329.863C56.6937 329.863 47.6284 326.232 42.2414 329.863C36.8545 333.494 30.4589 338.014 30.4589 338.014H259.702C259.702 338.014 262.419 329.863 252.452 324.404Z" fill="white"/>
<path opacity="0.5" d="M252.452 324.404C242.485 318.958 237.952 323.491 234.321 318.958C230.69 314.426 244.288 302.655 217.104 290.872C217.104 290.872 215.289 265.492 178.138 264.59C140.987 263.688 150.942 289.959 140.975 296.307C131.008 302.655 128.291 292.676 118.323 299.024C108.356 305.372 112.877 318.009 104.725 319.872C96.5739 321.735 85.7406 311.708 75.7261 318.056C65.7115 324.404 65.759 329.863 61.2263 329.863C56.6937 329.863 47.6284 326.232 42.2414 329.863C36.8545 333.494 30.4589 338.014 30.4589 338.014H259.702C259.702 338.014 262.419 329.863 252.452 324.404Z" fill="white"/>
<path d="M84.9456 285.758C84.9456 285.758 79.084 280.621 73.0207 278.841C66.9574 277.061 59.9686 277.049 53.9171 275.4C47.8657 273.75 44.3297 272.362 44.3297 272.362L44.0212 277.82L84.7439 288.82L112.604 281.107L115.381 275.447C112.345 276.86 109.161 277.931 105.888 278.639C99.825 280.075 93.0379 280.075 89.2765 281.522C85.5151 282.97 84.9456 285.758 84.9456 285.758Z" fill="white" stroke="#263238" stroke-linecap="round" stroke-linejoin="round"/>
<path d="M43.4042 273.62C51.3626 276.075 59.5222 277.822 67.788 278.841C74.0036 279.684 79.9053 282.084 84.9456 285.818C89.0454 283.197 93.7653 281.707 98.6266 281.499C104.474 281.056 110.242 279.88 115.796 277.998L114.052 281.558L84.1269 287.408L42.7872 276.61L43.4042 273.62Z" fill="white" stroke="#263238" stroke-linecap="round" stroke-linejoin="round"/>
<path d="M42.2651 274.854C48.5943 277.277 55.2254 278.822 61.9738 279.446C72.9851 280.276 84.6371 285.758 84.6371 285.758C89.1439 283.485 94.0919 282.222 99.1368 282.056C104.798 282.007 110.431 281.246 115.903 279.79C115.732 280.358 115.69 280.957 115.778 281.544C115.866 282.131 116.083 282.691 116.413 283.184L84.5303 289.971L42.0634 277.654L42.2651 274.854Z" fill="white" stroke="#263238" stroke-linecap="round" stroke-linejoin="round"/>
<path d="M41.7549 277.12L83.2013 287.503V288.95L86.6898 289.045V287.408L117.339 282.567C117.339 282.567 118.679 282.258 117.54 283.753C116.401 285.248 96.6688 302.572 96.6688 302.572L74.7531 304.779L41.5295 297.482L41.7549 277.12Z" fill="#C6FF00"/>
<path opacity="0.3" d="M83.2014 288.95V287.503L41.7549 277.12L41.5532 297.482L74.7649 304.779L75.3582 304.72L84.1269 288.974L83.2014 288.95Z" fill="black"/>
<path d="M41.7549 277.12L83.2013 287.503V288.95L86.6898 289.045V287.408L117.339 282.567C117.339 282.567 118.679 282.258 117.54 283.753C116.401 285.248 96.6688 302.572 96.6688 302.572L74.7531 304.779L41.5295 297.482L41.7549 277.12Z" stroke="#263238" stroke-linecap="round" stroke-linejoin="round"/>
<path d="M83.2014 288.95L74.0411 304.779L75.7972 304.886L86.6898 289.045L83.2014 288.95Z" fill="#C6FF00" stroke="#263238" stroke-linecap="round" stroke-linejoin="round"/>
<path d="M81.73 385.453C81.73 385.453 79.7366 389.63 77.1262 391.564C74.5158 393.498 71.0748 394.376 68.3931 396.215C66.9366 397.2 65.5417 398.274 64.2165 399.43L63.1486 395.8L81.1605 383.424L96.0518 385.227L98.3537 388.692C96.6901 388.129 94.9577 387.793 93.204 387.695C90.0122 387.47 86.7017 388.301 84.6015 387.79C83.9768 387.644 83.3935 387.358 82.896 386.953C82.3985 386.548 81.9997 386.035 81.73 385.453Z" fill="white" stroke="#263238" stroke-linecap="round" stroke-linejoin="round"/>
<path d="M63.5164 398.683C66.9292 396.116 70.6283 393.954 74.5395 392.24C77.5633 390.751 80.0688 388.386 81.73 385.453C84.0049 386.638 86.6027 387.055 89.1341 386.639C92.1141 386.229 95.1416 386.317 98.0926 386.9L96.6332 384.682L81.0537 384.444L62.7095 396.749L63.5164 398.683Z" fill="white" stroke="#263238" stroke-linecap="round" stroke-linejoin="round"/>
<path d="M62.757 397.995C65.3538 395.653 68.3472 393.792 71.5968 392.501C76.8177 390.602 81.5876 385.488 81.5876 385.488C84.0325 386.444 86.6963 386.695 89.2765 386.212C92.0783 385.556 94.9717 385.384 97.8316 385.702C97.4724 384.966 97.3601 384.134 97.5112 383.329L80.8282 382.629L62.1874 396.144L62.757 397.995Z" fill="white" stroke="#263238" stroke-linecap="round" stroke-linejoin="round"/>
<path d="M62.1281 396.535L80.5909 384.444L80.3417 383.483L82.0385 382.985L82.3114 384.088L98.0689 383.614C98.0689 383.614 98.769 383.614 97.9621 382.759C97.1552 381.905 84.6371 372.685 84.6371 372.685L73.5665 373.872L58.5922 382.831L62.1281 396.535Z" fill="#C6FF00"/>
<path opacity="0.3" d="M80.3417 383.519L80.5909 384.48L62.1281 396.535L58.5922 382.831L73.5665 373.872L73.8631 373.836L80.7926 383.388L80.3417 383.519Z" fill="black"/>
<path d="M62.1281 396.535L80.5909 384.444L80.3417 383.483L82.0385 382.985L82.3114 384.088L98.0689 383.614C98.0689 383.614 98.769 383.614 97.9621 382.759C97.1552 381.905 84.6371 372.685 84.6371 372.685L73.5665 373.872L58.5922 382.831L62.1281 396.535Z" stroke="#263238" stroke-linecap="round" stroke-linejoin="round"/>
<path d="M80.3417 383.519L73.2105 373.955L74.053 373.67L82.0385 383.02L80.3417 383.519Z" fill="#C6FF00" stroke="#263238" stroke-linecap="round" stroke-linejoin="round"/>
<path d="M357.794 257.744L391.303 291.667L319.753 311.827L315.019 277.808L357.794 257.744Z" fill="#C6FF00" stroke="#263238" stroke-linecap="round" stroke-linejoin="round"/>
<path d="M387.446 296.568L313.441 318.317L319.409 279.209L356.75 262.549L387.446 296.568Z" fill="white" stroke="#263238" stroke-linecap="round" stroke-linejoin="round"/>
<path d="M358.506 264.661L386.034 300.258L316.597 320.418L324.666 277.63L358.506 264.661Z" fill="white"/>
<path opacity="0.17" d="M358.506 264.661L386.034 300.258L316.597 320.418L324.666 277.63L358.506 264.661Z" fill="black"/>
<path d="M358.506 264.661L386.034 300.258L316.597 320.418L324.666 277.63L358.506 264.661Z" stroke="#263238" stroke-linecap="round" stroke-linejoin="round"/>
<path d="M358.506 264.661L345.881 308.493L296.604 323.408L315.541 283.065L358.506 264.661Z" fill="white" stroke="#263238" stroke-linecap="round" stroke-linejoin="round"/>
<path d="M342.381 304.992L294.847 320.952L293.447 314.283L337.469 298.502L342.381 304.992Z" fill="white" stroke="#263238" stroke-linecap="round" stroke-linejoin="round"/>
<path d="M357.284 258.693L388.846 291.489L387.446 296.568L358.506 264.661L342.381 304.992L337.469 298.502L357.284 258.693Z" fill="white" stroke="#263238" stroke-linecap="round" stroke-linejoin="round"/>
<path d="M357.794 257.744L337.646 299.724L291.169 315.505L315.019 277.808L357.794 257.744Z" fill="#C6FF00"/>
<path opacity="0.3" d="M357.794 257.744L337.646 299.724L291.169 315.505L315.019 277.808L357.794 257.744Z" fill="black"/>
<path d="M357.794 257.744L337.646 299.724L291.169 315.505L315.019 277.808L357.794 257.744Z" stroke="#263238" stroke-linecap="round" stroke-linejoin="round"/>
<path d="M313.097 281.677L350.485 264.614" stroke="#263238" stroke-linecap="round" stroke-linejoin="round"/>
<path d="M202.118 379.674L236.433 337.457L165.643 334.134L160.007 369.6L202.118 379.674Z" fill="#C6FF00" stroke="#263238" stroke-linecap="round" stroke-linejoin="round"/>
<path d="M232.719 333.422L159.521 329.091L164.409 367.144L201.204 375.07L232.719 333.422Z" fill="white" stroke="#263238" stroke-linecap="round" stroke-linejoin="round"/>
<path d="M203.008 372.519L231.414 330.029L162.724 326.208L169.618 367.476L203.008 372.519Z" fill="white"/>
<path opacity="0.17" d="M203.008 372.519L231.414 330.029L162.724 326.208L169.618 367.476L203.008 372.519Z" fill="black"/>
<path d="M203.008 372.519L231.414 330.029L162.724 326.208L169.618 367.476L203.008 372.519Z" stroke="#263238" stroke-linecap="round" stroke-linejoin="round"/>
<path d="M203.008 372.519L191.605 331.275L142.873 327.964L160.672 364.166L203.008 372.519Z" fill="white" stroke="#263238" stroke-linecap="round" stroke-linejoin="round"/>
<path d="M188.01 335.653L141.058 330.859L139.48 337.919L182.943 343.366L188.01 335.653Z" fill="white" stroke="#263238" stroke-linecap="round" stroke-linejoin="round"/>
<path d="M201.62 378.832L233.977 338.216L232.719 333.422L203.008 372.519L188.01 335.653L182.943 343.366L201.62 378.832Z" fill="white" stroke="#263238" stroke-linecap="round" stroke-linejoin="round"/>
<path d="M202.118 379.674L183.145 342.084L137.237 337.219L160.007 369.6L202.118 379.674Z" fill="#C6FF00"/>
<path opacity="0.3" d="M202.118 379.674L183.145 342.084L137.237 337.219L160.007 369.6L202.118 379.674Z" fill="black"/>
<path d="M202.118 379.674L183.145 342.084L137.237 337.219L160.007 369.6L202.118 379.674Z" stroke="#263238" stroke-linecap="round" stroke-linejoin="round"/>
<path d="M156.507 364.925L193.895 372.792" stroke="#263238" stroke-linecap="round" stroke-linejoin="round"/>
<path d="M229.943 95.7907C229.943 95.7907 214.399 103.302 208.181 112.402C201.964 121.503 203.779 138.305 213.355 143.739C222.93 149.174 256.355 169.132 279.932 166.284C303.509 163.436 299.878 139.337 287.965 129.75C276.052 120.163 259.986 111.536 259.986 111.536C259.986 111.536 259.203 106.363 258.171 104.547C257.139 102.732 245.226 91.1275 229.943 95.7907Z" fill="#263238" stroke="#263238" stroke-linecap="round" stroke-linejoin="round"/>
<path d="M293.079 135.422C257.791 124.624 234.547 143.953 227.261 151.357C241.856 158.939 263.356 168.254 279.968 166.248C299.653 163.863 300.329 146.599 293.079 135.422Z" fill="white" stroke="#263238" stroke-linecap="round" stroke-linejoin="round"/>
<path d="M269.052 132.574C269.052 132.574 289.781 149.186 282.519 165.726" stroke="#263238" stroke-linecap="round" stroke-linejoin="round"/>
<path d="M201.015 88.5527L192.709 127.294H199.389L215.858 96.7637C215.858 96.7637 212.643 86.9746 201.015 88.5527Z" fill="white" stroke="#263238" stroke-linecap="round" stroke-linejoin="round"/>
<path d="M305.408 69.7577C298.609 61.4518 289.627 53.751 273.169 52.4339C273.169 52.4339 259.144 51.9949 240.064 60.1109C225.149 66.4472 209.214 80.2824 201.014 88.5883C208.347 90.4512 212.714 93.4532 215.87 96.7993C219.121 93.7024 221.957 91.0089 224.046 89.3121C231.07 83.6048 241.381 78.7873 241.381 78.7873C241.381 78.7873 230.192 94.0939 227.997 98.0451C225.802 101.996 227.344 108.356 238.961 110.112C250.577 111.869 253.437 109.673 258.04 107.039C262.644 104.405 268.352 102.044 270.535 102.044C274.921 102.355 279.275 101.093 282.816 98.4842C288.511 94.5329 290.92 83.3556 292.901 82.4775C294.266 81.8724 306.238 97.4875 315.624 109.163L316.431 108.748C320.489 106.66 323.657 102.4 325.828 98.6503C318.223 87.6628 309.798 75.1446 305.408 69.7577Z" fill="#C6FF00" stroke="#263238" stroke-linecap="round" stroke-linejoin="round"/>
<path d="M266.097 59.8024C266.097 59.8024 261.446 70.9917 270.76 75.2277" stroke="#263238" stroke-linecap="round" stroke-linejoin="round"/>
<path d="M241.381 78.7518L251.491 75.7616" stroke="#263238" stroke-linecap="round" stroke-linejoin="round"/>
<path d="M241.215 98.2706C241.215 98.2706 247.575 103.895 262.502 97.5349" stroke="#263238" stroke-linecap="round" stroke-linejoin="round"/>
<path d="M299.451 78.2059C295.773 78.6924 292.913 82.4775 292.913 82.4775C297.158 81.5733 301.474 81.0452 305.811 80.8994" stroke="#263238" stroke-linecap="round" stroke-linejoin="round"/>
<path d="M241.713 79.6773C241.713 79.6773 248.56 79.6773 255.169 79.4281" stroke="#263238" stroke-linecap="round" stroke-linejoin="round"/>
<path d="M245.38 95.3279C245.38 95.3279 246.115 99.7419 255.655 99.2436" stroke="#263238" stroke-linecap="round" stroke-linejoin="round"/>
<path d="M270.76 56.1597C270.76 56.1597 269.23 64.0503 270.321 68.2151C271.413 72.3799 275.364 77.2092 278.212 72.1664C281.06 67.1235 282.602 61.4873 282.602 58.7939C282.602 56.1004 272.73 51.1168 270.76 56.1597Z" fill="white" stroke="#263238" stroke-linecap="round" stroke-linejoin="round"/>
<path d="M292.913 46.2757C292.913 46.2757 299.048 44.9586 304.316 38.1596C309.584 31.3607 302.774 30.4945 300.59 23.921C298.407 17.3475 306.12 19.5307 294.942 8.12791C283.765 -3.2749 265.551 0.676336 256.972 4.40212C248.394 8.12791 248.667 20.6342 242.496 21.5123C236.326 22.3903 233.728 16.4694 226.276 16.4694C218.825 16.4694 210.922 24.36 213.995 30.9335C217.069 37.507 222.99 34.6712 223.429 33.5677C223.868 32.4642 220.355 33.7931 220.13 30.4945C219.904 27.1959 228.021 28.9638 230.441 33.3541C232.399 36.9138 228.804 41.9685 228.922 45.7062C229.171 53.2052 238.415 57.9989 244.253 59.0312C252.214 60.4194 261.897 59.933 269.111 55.9817C277.975 51.1168 273.857 41.0311 280.383 38.397C286.909 35.7628 290.255 39.714 290.255 39.714L292.913 46.2757Z" fill="#263238" stroke="#263238" stroke-linecap="round" stroke-linejoin="round"/>
<path d="M225.885 20.5512C224.755 20.0602 223.511 19.8902 222.291 20.0598C221.071 20.2293 219.921 20.7319 218.967 21.5123" stroke="white" stroke-linecap="round" stroke-linejoin="round"/>
<path d="M284.406 26.745C284.406 26.745 284.406 13.6929 275.245 11.035C266.085 8.37709 255.62 20.1952 250.328 27.6468C245.036 35.0983 237.276 33.3185 231.568 25.4635C231.032 24.7062 230.437 23.9921 229.789 23.3277" stroke="white" stroke-linecap="round" stroke-linejoin="round"/>
<path d="M232.494 51.1762C237.24 54.2256 240.8 55.1037 247.765 52.9204C254.73 50.7371 253.923 39.3937 259.974 33.2948C266.026 27.1959 276.99 29.3673 276.99 29.3673C276.99 29.3673 264.78 22.8175 255.181 29.7944C245.582 36.7714 246.448 48.5539 237.727 50.7371" stroke="white" stroke-linecap="round" stroke-linejoin="round"/>
<path d="M290.516 28.0502C290.516 28.0502 298.822 25.8669 298.371 18.451" stroke="white" stroke-linecap="round" stroke-linejoin="round"/>
<path d="M222.171 112.106C222.171 112.106 244.715 114.954 256.094 122.785" stroke="white" stroke-linecap="round" stroke-linejoin="round"/>
<path d="M285.758 30.8505C284.354 30.4477 282.864 30.4573 281.465 30.8781C280.065 31.2989 278.817 32.113 277.868 33.2236C274.142 37.1629 274.308 39.1564 271.199 41.6125C270.272 42.4231 269.103 42.9054 267.874 42.9848C266.645 43.0642 265.424 42.7362 264.4 42.0516C263.083 41.3989 261.553 41.838 261.114 44.8993C260.675 47.9606 264.839 50.3812 265.504 50.3812C266.164 50.417 266.822 50.4923 267.474 50.6066C267.474 50.6066 267.474 56.0885 271.199 59.3753C274.925 62.662 282.389 67.9304 287.431 66.8387C292.474 65.7471 294.444 54.1188 294.444 48.1979C294.247 42.1903 293.044 36.2584 290.884 30.6488C289.401 27.2077 285.758 30.8505 285.758 30.8505Z" fill="white" stroke="#263238" stroke-linecap="round" stroke-linejoin="round"/>
<path d="M281.582 44.1992C281.582 45.3858 281.143 46.4062 280.609 46.4062C280.075 46.4062 279.624 45.4214 279.624 44.1992C279.624 42.9771 280.063 42.0041 280.609 42.0041C281.155 42.0041 281.582 42.9889 281.582 44.1992Z" fill="#263238"/>
<path d="M289.413 43.4636C289.413 44.6501 288.974 45.6706 288.44 45.6706C287.906 45.6706 287.455 44.6857 287.455 43.4636C287.455 42.2414 287.894 41.2684 288.44 41.2684C288.986 41.2684 289.413 42.2533 289.413 43.4636Z" fill="#263238"/>
<path d="M276.942 39.7971C276.942 39.7971 278.402 37.602 282.08 38.6105" stroke="#263238" stroke-linecap="round" stroke-linejoin="round"/>
<path d="M286.233 38.5749C286.233 38.5749 288.677 35.8815 290.884 38.5749" stroke="#263238" stroke-linecap="round" stroke-linejoin="round"/>
<path d="M285.96 43.4636C285.96 43.4636 286.197 48.364 287.669 48.364C289.14 48.364 288.642 50.5592 286.684 51.2948" stroke="#263238" stroke-linecap="round" stroke-linejoin="round"/>
<path d="M284.774 56.1953C284.774 56.1953 280.371 58.1413 278.663 53.7391" stroke="#263238" stroke-linecap="round" stroke-linejoin="round"/>
<path d="M285.794 164.504C285.794 164.504 260.876 142.648 235.057 135.208C209.237 127.768 179.526 131.269 153.718 124.28C127.911 117.291 113.055 107.668 113.055 107.668L111.738 130.842L284.975 177.639L403.429 144.831L415.295 120.78C415.295 120.78 400.866 128.207 375.059 134.33C349.251 140.453 320.394 140.453 304.221 146.575C288.048 152.698 285.794 164.504 285.794 164.504Z" fill="white" stroke="#263238" stroke-linecap="round" stroke-linejoin="round"/>
<path d="M109.163 112.901C109.163 112.901 138.02 130.403 203.186 136.525C246.08 140.548 285.841 164.504 285.841 164.504C303.264 153.365 323.322 147.028 343.983 146.136C378.096 144.831 417.015 131.269 417.015 131.269L409.587 146.575L282.329 171.493L106.493 125.585L109.163 112.901Z" fill="white" stroke="#263238" stroke-linecap="round" stroke-linejoin="round"/>
<path d="M104.31 118.157C128.905 129.301 155.236 136.125 182.148 138.329C228.934 141.888 284.477 164.564 284.477 164.564C284.477 164.564 313.773 148.83 346.178 148.83C370.246 148.624 394.193 145.391 417.454 139.207C416.731 141.624 416.552 144.171 416.929 146.666C417.307 149.16 418.232 151.54 419.637 153.635L284.038 182.433L103.432 129.964L104.31 118.157Z" fill="white" stroke="#263238" stroke-linecap="round" stroke-linejoin="round"/>
<path d="M105.188 128.54L278.354 171.944V178.067L293.222 178.506V171.505L423.601 150.954C423.601 150.954 429.284 149.637 424.479 156.198C419.673 162.76 335.701 235.792 335.701 235.792L242.556 245.415L101.356 214.363L102.044 130.937C102.045 130.554 102.134 130.177 102.304 129.835C102.474 129.493 102.721 129.194 103.025 128.963C103.329 128.731 103.682 128.572 104.057 128.499C104.432 128.426 104.819 128.44 105.188 128.54Z" fill="#C6FF00"/>
<path opacity="0.3" d="M278.354 178.067V171.944L102.115 127.768L101.249 214.363L242.497 245.415L245.012 245.154L282.305 178.185L278.354 178.067Z" fill="black"/>
<path d="M105.188 128.54L278.354 171.944V178.067L293.222 178.506V171.505L423.601 150.954C423.601 150.954 429.284 149.637 424.479 156.198C419.673 162.76 335.701 235.792 335.701 235.792L242.556 245.415L101.356 214.363L102.044 130.937C102.045 130.554 102.134 130.177 102.304 129.835C102.474 129.493 102.721 129.194 103.025 128.963C103.329 128.731 103.682 128.572 104.057 128.499C104.432 128.426 104.819 128.44 105.188 128.54Z" stroke="#263238" stroke-linecap="round" stroke-linejoin="round"/>
<path d="M278.354 178.067L239.435 245.415L246.875 245.843L293.222 178.506L278.354 178.067Z" fill="#C6FF00" stroke="#263238" stroke-linecap="round" stroke-linejoin="round"/>
<path d="M408.247 153.683C408.247 153.683 419.863 155.854 417.442 163.602L424.419 156.198C424.419 156.198 427.611 152.223 426.152 151.452C424.692 150.681 408.247 153.683 408.247 153.683Z" fill="#263238"/>
<path d="M121.242 132.894C121.242 132.894 104.809 137.439 102.257 149.72L102.044 130.936C102.044 130.936 102.542 128.101 105.141 128.563C107.739 129.026 121.242 132.894 121.242 132.894Z" fill="#263238"/>
<path d="M101.403 208.597L109.662 216.463L101.249 214.363L101.403 208.597Z" fill="#263238"/>
<path d="M329.697 236.303L340.898 230.797L335 235.911L329.697 236.303Z" fill="#263238"/>
<path d="M325.769 98.6978L357.284 136.454L349.346 137.712L315.624 109.163C315.624 109.163 324.321 103.527 325.769 98.6978Z" fill="white" stroke="#263238" stroke-linecap="round" stroke-linejoin="round"/>
<path d="M186.016 123.829C186.016 123.829 184.438 121.919 184.035 123.627C183.631 125.336 180.06 131.269 182.848 131.684C185.637 132.099 187.215 125.324 187.215 125.324L186.016 123.829Z" fill="white" stroke="#263238" stroke-linecap="round" stroke-linejoin="round"/>
<path d="M189.849 123.604C189.849 123.604 188.259 121.693 187.867 123.39C187.476 125.087 183.892 131.031 186.681 131.459C189.469 131.886 191.059 125.087 191.059 125.087L189.849 123.604Z" fill="white" stroke="#263238" stroke-linecap="round" stroke-linejoin="round"/>
<path d="M193.575 123.461C193.575 123.461 191.688 121.337 191.202 123.224C190.715 125.111 186.455 131.708 189.79 132.182C193.124 132.657 194.975 125.063 194.975 125.063L193.575 123.461Z" fill="white" stroke="#263238" stroke-linecap="round" stroke-linejoin="round"/>
<path d="M196.873 124.173L203.233 130.296H195.699L196.873 124.173Z" fill="white" stroke="#263238" stroke-linecap="round" stroke-linejoin="round"/>
<path d="M196.873 124.173C196.873 124.173 194.987 122.049 194.5 123.936C194.014 125.822 189.754 132.42 193.088 132.882C196.423 133.345 198.274 125.822 198.274 125.822L196.873 124.173Z" fill="white" stroke="#263238" stroke-linecap="round" stroke-linejoin="round"/>
<path d="M365.875 129.667C365.875 129.667 367.144 127.531 367.809 129.145C368.473 130.759 372.923 136.074 370.253 136.929C367.583 137.783 364.937 131.328 364.937 131.328L365.875 129.667Z" fill="white" stroke="#263238" stroke-linecap="round" stroke-linejoin="round"/>
<path d="M362.113 130.023C362.113 130.023 363.383 127.887 364.047 129.501C364.712 131.114 369.161 136.43 366.492 137.285C363.822 138.139 361.176 131.684 361.176 131.684L362.113 130.023Z" fill="white" stroke="#263238" stroke-linecap="round" stroke-linejoin="round"/>
<path d="M358.34 130.521C358.34 130.521 359.859 128.148 360.63 129.916C361.401 131.684 366.563 137.557 363.43 138.542C360.298 139.527 357.201 132.372 357.201 132.372L358.34 130.521Z" fill="white" stroke="#263238" stroke-linecap="round" stroke-linejoin="round"/>
<path d="M355.219 131.708L349.892 138.756L357.343 137.569L355.219 131.708Z" fill="white" stroke="#263238" stroke-linecap="round" stroke-linejoin="round"/>
<path d="M355.207 131.708C355.207 131.708 356.738 129.335 357.498 131.103C358.257 132.871 363.43 138.732 360.31 139.717C357.189 140.702 354.08 133.559 354.08 133.559L355.207 131.708Z" fill="white" stroke="#263238" stroke-linecap="round" stroke-linejoin="round"/>
<path d="M136.474 242.727C142.466 236.736 142.466 227.021 136.474 221.03C130.483 215.038 120.769 215.038 114.777 221.03C108.786 227.021 108.786 236.736 114.777 242.727C120.769 248.719 130.483 248.719 136.474 242.727Z" fill="white"/>
<path d="M89.2532 185.803C93.5209 181.535 93.5209 174.615 89.2532 170.348C84.9854 166.08 78.0661 166.08 73.7984 170.348C69.5307 174.615 69.5307 181.535 73.7984 185.803C78.0661 190.07 84.9854 190.07 89.2532 185.803Z" fill="white"/>
<path d="M361.15 209.832C366.998 208.337 370.526 202.385 369.031 196.537C367.537 190.69 361.585 187.161 355.737 188.656C349.89 190.151 346.361 196.103 347.856 201.951C349.351 207.798 355.303 211.327 361.15 209.832Z" fill="white"/>
<path d="M252.533 276.179C258.496 275.249 262.576 269.66 261.646 263.697C260.715 257.734 255.126 253.654 249.163 254.584C243.2 255.515 239.12 261.104 240.051 267.067C240.981 273.03 246.57 277.11 252.533 276.179Z" fill="white"/>
<path d="M277.678 242.532C283.713 242.532 288.606 237.639 288.606 231.604C288.606 225.568 283.713 220.676 277.678 220.676C271.642 220.676 266.75 225.568 266.75 231.604C266.75 237.639 271.642 242.532 277.678 242.532Z" fill="white"/>
<path d="M272.196 309.478C276.187 309.478 279.422 306.242 279.422 302.251C279.422 298.261 276.187 295.025 272.196 295.025C268.205 295.025 264.97 298.261 264.97 302.251C264.97 306.242 268.205 309.478 272.196 309.478Z" fill="white"/>
<path d="M309.406 265.385C313.397 265.385 316.633 262.15 316.633 258.159C316.633 254.168 313.397 250.933 309.406 250.933C305.416 250.933 302.18 254.168 302.18 258.159C302.18 262.15 305.416 265.385 309.406 265.385Z" fill="white"/>
<path d="M179.763 227.285C183.754 227.285 186.989 224.05 186.989 220.059C186.989 216.068 183.754 212.833 179.763 212.833C175.772 212.833 172.537 216.068 172.537 220.059C172.537 224.05 175.772 227.285 179.763 227.285Z" fill="white"/>
<path d="M62.4722 236.113C66.463 236.113 69.6983 232.878 69.6983 228.887C69.6983 224.896 66.463 221.661 62.4722 221.661C58.4813 221.661 55.246 224.896 55.246 228.887C55.246 232.878 58.4813 236.113 62.4722 236.113Z" fill="white"/>
</g>
<defs>
<clipPath id="clip0_38_10">
<rect width="457.857" height="400" fill="white"/>
</clipPath>
</defs>
</svg>
